<svg width="24" height="24" viewBox="0 0 24 24" fill="none" xmlns="http://www.w3.org/2000/svg">
<path d="M2.06933 9.07183C2.76428 10.2755 4.44933 10.8689 5.62196 10.1918C6.84735 9.48435 7.0477 7.82599 7.54443 6.99675C8.04116 6.16751 8.92725 5.84318 9.73696 5.73089C10.5467 5.61861 12.1979 6.39537 13.4652 5.66355C14.6566 4.9756 15.0256 3.33284 14.3306 2.12915C13.6357 0.925467 11.9506 0.332136 10.778 1.00915C9.55263 1.71664 9.35228 3.375 8.85555 4.20423C8.35882 5.03347 7.72621 5.56196 6.70397 5.60046C5.68173 5.63896 4.20206 4.80562 2.93474 5.53744C1.7434 6.22538 1.37438 7.86814 2.06933 9.07183Z" fill="#013BDB"/>
<path d="M2.06933 9.07183C2.76428 10.2755 4.44933 10.8689 5.62196 10.1918C6.84735 9.48435 7.0477 7.82599 7.54443 6.99675C8.04116 6.16751 8.92725 5.84318 9.73696 5.73089C10.5467 5.61861 12.1979 6.39537 13.4652 5.66355C14.6566 4.9756 15.0256 3.33284 14.3306 2.12915C13.6357 0.925467 11.9506 0.332136 10.778 1.00915C9.55263 1.71664 9.35228 3.375 8.85555 4.20423C8.35882 5.03347 7.72621 5.56196 6.70397 5.60046C5.68173 5.63896 4.20206 4.80562 2.93474 5.53744C1.7434 6.22538 1.37438 7.86814 2.06933 9.07183Z" fill="url(#paint0_linear_420_841)" fill-opacity="0.44" style="mix-blend-mode:plus-lighter"/>
<path d="M14.331 20.7713C13.6361 21.975 11.9511 22.5684 10.7784 21.8913C9.55303 21.1839 9.35268 19.5255 8.85595 18.6963C8.35922 17.867 7.47313 17.5427 6.66342 17.4304C5.85371 17.3181 4.20247 18.0949 2.93515 17.3631C1.7438 16.6751 1.37479 15.0324 2.06974 13.8287C2.76469 12.625 4.44973 12.0316 5.62236 12.7087C6.84776 13.4161 7.0481 15.0745 7.54483 15.9037C8.04157 16.733 8.67418 17.2615 9.69641 17.3C10.7186 17.3385 12.1983 16.5051 13.4656 17.2369C14.657 17.9249 15.026 19.5677 14.331 20.7713Z" fill="#013BDB"/>
<path d="M14.331 20.7713C13.6361 21.975 11.9511 22.5684 10.7784 21.8913C9.55303 21.1839 9.35268 19.5255 8.85595 18.6963C8.35922 17.867 7.47313 17.5427 6.66342 17.4304C5.85371 17.3181 4.20247 18.0949 2.93515 17.3631C1.7438 16.6751 1.37479 15.0324 2.06974 13.8287C2.76469 12.625 4.44973 12.0316 5.62236 12.7087C6.84776 13.4161 7.0481 15.0745 7.54483 15.9037C8.04157 16.733 8.67418 17.2615 9.69641 17.3C10.7186 17.3385 12.1983 16.5051 13.4656 17.2369C14.657 17.9249 15.026 19.5677 14.331 20.7713Z" fill="url(#paint1_linear_420_841)" fill-opacity="0.44" style="mix-blend-mode:plus-lighter"/>
<path d="M18.5328 18.9424C19.9227 18.9424 21.2791 17.7798 21.2791 16.4257C21.2791 15.0108 19.9431 14.0081 19.4733 13.1633C19.0035 12.3185 19.1657 11.3889 19.4733 10.6316C19.7809 9.8742 21.2792 8.83257 21.2791 7.36912C21.279 5.99342 20.0409 4.85246 18.651 4.85246C17.2611 4.85246 15.9047 6.01509 15.9047 7.36912C15.9047 8.78409 17.2407 9.78677 17.7105 10.6316C18.1803 11.4764 18.3216 12.2885 17.8439 13.193C17.3661 14.0975 15.9046 14.9623 15.9047 16.4257C15.9048 17.8014 17.1429 18.9424 18.5328 18.9424Z" fill="#013BDB"/>
<path d="M18.5328 18.9424C19.9227 18.9424 21.2791 17.7798 21.2791 16.4257C21.2791 15.0108 19.9431 14.0081 19.4733 13.1633C19.0035 12.3185 19.1657 11.3889 19.4733 10.6316C19.7809 9.8742 21.2792 8.83257 21.2791 7.36912C21.279 5.99342 20.0409 4.85246 18.651 4.85246C17.2611 4.85246 15.9047 6.01509 15.9047 7.36912C15.9047 8.78409 17.2407 9.78677 17.7105 10.6316C18.1803 11.4764 18.3216 12.2885 17.8439 13.193C17.3661 14.0975 15.9046 14.9623 15.9047 16.4257C15.9048 17.8014 17.1429 18.9424 18.5328 18.9424Z" fill="url(#paint2_linear_420_841)" fill-opacity="0.44" style="mix-blend-mode:plus-lighter"/>
<defs>
<linearGradient id="paint0_linear_420_841" x1="11.4996" y1="22.1759" x2="11.4996" y2="0.724548" gradientUnits="userSpaceOnUse">
<stop stop-color="#000C2F" stop-opacity="0"/>
<stop offset="1" stop-color="#000C2F"/>
</linearGradient>
<linearGradient id="paint1_linear_420_841" x1="11.4996" y1="22.1759" x2="11.4996" y2="0.724548" gradientUnits="userSpaceOnUse">
<stop stop-color="#000C2F" stop-opacity="0"/>
<stop offset="1" stop-color="#000C2F"/>
</linearGradient>
<linearGradient id="paint2_linear_420_841" x1="11.4996" y1="22.1759" x2="11.4996" y2="0.724548" gradientUnits="userSpaceOnUse">
<stop stop-color="#000C2F" stop-opacity="0"/>
<stop offset="1" stop-color="#000C2F"/>
</linearGradient>
</defs>
</svg>
